<svg width="30" height="30" viewBox="0 0 30 30" fill="none" xmlns="http://www.w3.org/2000/svg">
<mask id="path-1-inside-1_3324_349" fill="white">
<path d="M0 8C0 3.58172 3.58172 0 8 0H22C26.4183 0 30 3.58172 30 8V22C30 26.4183 26.4183 30 22 30H8C3.58172 30 0 26.4183 0 22V8Z"/>
</mask>
<path d="M0 8C0 3.58172 3.58172 0 8 0H22C26.4183 0 30 3.58172 30 8V22C30 26.4183 26.4183 30 22 30H8C3.58172 30 0 26.4183 0 22V8Z" fill="#B32349"/>
<path d="M8 1H22V-1H8V1ZM29 8V22H31V8H29ZM22 29H8V31H22V29ZM1 22V8H-1V22H1ZM8 29C4.13401 29 1 25.866 1 22H-1C-1 26.9706 3.02944 31 8 31V29ZM29 22C29 25.866 25.866 29 22 29V31C26.9706 31 31 26.9706 31 22H29ZM22 1C25.866 1 29 4.13401 29 8H31C31 3.02944 26.9706 -1 22 -1V1ZM8 -1C3.02944 -1 -1 3.02944 -1 8H1C1 4.13401 4.13401 1 8 1V-1Z" fill="#B32349" mask="url(#path-1-inside-1_3324_349)"/>
<path d="M9 17.25C9 17.25 9.75 16.5 12 16.5C14.25 16.5 15.75 18 18 18C20.25 18 21 17.25 21 17.25V8.25C21 8.25 20.25 9 18 9C15.75 9 14.25 7.5 12 7.5C9.75 7.5 9 8.25 9 8.25V17.25ZM9 17.25V22.5" stroke="white" stroke-width="2" stroke-linecap="round" stroke-linejoin="round"/>
</svg>
