<svg width="30" height="30" viewBox="0 0 30 30" fill="none" xmlns="http://www.w3.org/2000/svg">
<mask id="path-1-inside-1_3324_354" fill="white">
<path d="M0 8C0 3.58172 3.58172 0 8 0H22C26.4183 0 30 3.58172 30 8V22C30 26.4183 26.4183 30 22 30H8C3.58172 30 0 26.4183 0 22V8Z"/>
</mask>
<path d="M0 8C0 3.58172 3.58172 0 8 0H22C26.4183 0 30 3.58172 30 8V22C30 26.4183 26.4183 30 22 30H8C3.58172 30 0 26.4183 0 22V8Z" fill="#55C055"/>
<path d="M8 1H22V-1H8V1ZM29 8V22H31V8H29ZM22 29H8V31H22V29ZM1 22V8H-1V22H1ZM8 29C4.13401 29 1 25.866 1 22H-1C-1 26.9706 3.02944 31 8 31V29ZM29 22C29 25.866 25.866 29 22 29V31C26.9706 31 31 26.9706 31 22H29ZM22 1C25.866 1 29 4.13401 29 8H31C31 3.02944 26.9706 -1 22 -1V1ZM8 -1C3.02944 -1 -1 3.02944 -1 8H1C1 4.13401 4.13401 1 8 1V-1Z" fill="#55C055" mask="url(#path-1-inside-1_3324_354)"/>
<g clip-path="url(#clip0_3324_354)">
<path d="M23.3334 14.2333V15C23.3324 16.797 22.7505 18.5455 21.6745 19.9848C20.5986 21.4241 19.0862 22.477 17.3629 22.9866C15.6396 23.4961 13.7978 23.4349 12.1121 22.8121C10.4265 22.1894 8.98729 21.0384 8.00922 19.5309C7.03114 18.0233 6.56657 16.24 6.68481 14.4469C6.80305 12.6538 7.49775 10.9469 8.66531 9.58086C9.83288 8.21482 11.4107 7.26279 13.1636 6.86676C14.9164 6.47073 16.7503 6.65192 18.3918 7.3833M23.3334 8.3333L15.0001 16.675L12.5001 14.175" stroke="white" stroke-width="2" stroke-linecap="round" stroke-linejoin="round"/>
</g>
<defs>
<clipPath id="clip0_3324_354">
<rect width="20" height="20" fill="white" transform="translate(5 5)"/>
</clipPath>
</defs>
</svg>
